<mxfile host="app.diagrams.net" modified="2024-05-21T21:15:35.481Z" agent="Mozilla/5.0 (Windows NT 10.0; Win64; x64) AppleWebKit/537.36 (KHTML, like Gecko) Chrome/125.0.0.0 Safari/537.36" etag="q8ay6QwdXaOh43eKEwjF" version="24.4.4" type="device">
  <diagram name="PÃ¡gina-1" id="DQor3K4pB3iZuFLeNcFV">
    <mxGraphModel dx="819" dy="422" grid="1" gridSize="10" guides="1" tooltips="1" connect="1" arrows="1" fold="1" page="1" pageScale="1" pageWidth="1169" pageHeight="827" math="0" shadow="0">
      <root>
        <mxCell id="0" />
        <mxCell id="1" parent="0" />
        <mxCell id="FUQMEWrJkWzYZzMCfJSg-194" value="" style="rounded=0;whiteSpace=wrap;html=1;" vertex="1" parent="1">
          <mxGeometry x="190" y="210" width="620" height="310" as="geometry" />
        </mxCell>
        <mxCell id="FUQMEWrJkWzYZzMCfJSg-2" value="Input" style="rounded=0;whiteSpace=wrap;html=1;rotation=-90;fillColor=#bac8d3;strokeColor=#23445d;" vertex="1" parent="1">
          <mxGeometry x="180" y="290" width="75" height="22.5" as="geometry" />
        </mxCell>
        <mxCell id="FUQMEWrJkWzYZzMCfJSg-3" value="conv2d" style="rounded=0;whiteSpace=wrap;html=1;rotation=-90;fillColor=#e1d5e7;strokeColor=#9673a6;" vertex="1" parent="1">
          <mxGeometry x="220" y="290" width="75" height="22.5" as="geometry" />
        </mxCell>
        <mxCell id="FUQMEWrJkWzYZzMCfJSg-4" value="" style="endArrow=classic;html=1;rounded=0;exitX=0.5;exitY=1;exitDx=0;exitDy=0;entryX=0.5;entryY=0;entryDx=0;entryDy=0;" edge="1" parent="1" source="FUQMEWrJkWzYZzMCfJSg-2" target="FUQMEWrJkWzYZzMCfJSg-3">
          <mxGeometry width="50" height="50" relative="1" as="geometry">
            <mxPoint x="310" y="300" as="sourcePoint" />
            <mxPoint x="360" y="250" as="targetPoint" />
          </mxGeometry>
        </mxCell>
        <mxCell id="FUQMEWrJkWzYZzMCfJSg-5" value="relu" style="rounded=0;whiteSpace=wrap;html=1;rotation=-90;fillColor=#dae8fc;strokeColor=#6c8ebf;" vertex="1" parent="1">
          <mxGeometry x="255" y="290" width="75" height="22.5" as="geometry" />
        </mxCell>
        <mxCell id="FUQMEWrJkWzYZzMCfJSg-6" value="" style="endArrow=classic;html=1;rounded=0;exitX=0.5;exitY=1;exitDx=0;exitDy=0;entryX=0.5;entryY=0;entryDx=0;entryDy=0;" edge="1" parent="1" source="FUQMEWrJkWzYZzMCfJSg-3" target="FUQMEWrJkWzYZzMCfJSg-5">
          <mxGeometry width="50" height="50" relative="1" as="geometry">
            <mxPoint x="370" y="320" as="sourcePoint" />
            <mxPoint x="420" y="270" as="targetPoint" />
          </mxGeometry>
        </mxCell>
        <mxCell id="FUQMEWrJkWzYZzMCfJSg-11" value="" style="endArrow=classic;html=1;rounded=0;exitX=0.5;exitY=1;exitDx=0;exitDy=0;entryX=0.5;entryY=0;entryDx=0;entryDy=0;" edge="1" parent="1" source="FUQMEWrJkWzYZzMCfJSg-5">
          <mxGeometry width="50" height="50" relative="1" as="geometry">
            <mxPoint x="309" y="301" as="sourcePoint" />
            <mxPoint x="317.25" y="301.25" as="targetPoint" />
          </mxGeometry>
        </mxCell>
        <mxCell id="FUQMEWrJkWzYZzMCfJSg-87" value="MaxPooling" style="rounded=0;whiteSpace=wrap;html=1;rotation=-90;fillColor=#ffe6cc;strokeColor=#d79b00;" vertex="1" parent="1">
          <mxGeometry x="291" y="290" width="75" height="22.5" as="geometry" />
        </mxCell>
        <mxCell id="FUQMEWrJkWzYZzMCfJSg-88" value="" style="rounded=0;whiteSpace=wrap;html=1;rotation=-90;fillColor=#e1d5e7;strokeColor=#9673a6;" vertex="1" parent="1">
          <mxGeometry x="319.75" y="296.25" width="75" height="10" as="geometry" />
        </mxCell>
        <mxCell id="FUQMEWrJkWzYZzMCfJSg-89" value="" style="rounded=0;whiteSpace=wrap;html=1;rotation=-90;fillColor=#dae8fc;strokeColor=#6c8ebf;" vertex="1" parent="1">
          <mxGeometry x="340" y="296.25" width="75" height="10" as="geometry" />
        </mxCell>
        <mxCell id="FUQMEWrJkWzYZzMCfJSg-90" value="" style="endArrow=classic;html=1;rounded=0;exitX=0.5;exitY=1;exitDx=0;exitDy=0;entryX=0.5;entryY=0;entryDx=0;entryDy=0;" edge="1" parent="1" source="FUQMEWrJkWzYZzMCfJSg-88" target="FUQMEWrJkWzYZzMCfJSg-89">
          <mxGeometry width="50" height="50" relative="1" as="geometry">
            <mxPoint x="480" y="320" as="sourcePoint" />
            <mxPoint x="530" y="270" as="targetPoint" />
          </mxGeometry>
        </mxCell>
        <mxCell id="FUQMEWrJkWzYZzMCfJSg-91" value="" style="endArrow=classic;html=1;rounded=0;exitX=0.5;exitY=1;exitDx=0;exitDy=0;entryX=0.5;entryY=0;entryDx=0;entryDy=0;" edge="1" parent="1" source="FUQMEWrJkWzYZzMCfJSg-89" target="FUQMEWrJkWzYZzMCfJSg-92">
          <mxGeometry width="50" height="50" relative="1" as="geometry">
            <mxPoint x="419" y="301" as="sourcePoint" />
            <mxPoint x="427.25" y="301.25" as="targetPoint" />
          </mxGeometry>
        </mxCell>
        <mxCell id="FUQMEWrJkWzYZzMCfJSg-92" value="" style="rounded=0;whiteSpace=wrap;html=1;rotation=-90;fillColor=#ffe6cc;strokeColor=#d79b00;" vertex="1" parent="1">
          <mxGeometry x="360" y="296.25" width="75" height="10" as="geometry" />
        </mxCell>
        <mxCell id="FUQMEWrJkWzYZzMCfJSg-93" value="" style="endArrow=classic;html=1;rounded=0;exitX=0.5;exitY=1;exitDx=0;exitDy=0;entryX=0.5;entryY=0;entryDx=0;entryDy=0;" edge="1" parent="1">
          <mxGeometry width="50" height="50" relative="1" as="geometry">
            <mxPoint x="340" y="301.13" as="sourcePoint" />
            <mxPoint x="352" y="301.13" as="targetPoint" />
          </mxGeometry>
        </mxCell>
        <mxCell id="FUQMEWrJkWzYZzMCfJSg-94" value="" style="endArrow=none;html=1;rounded=0;exitX=1;exitY=0;exitDx=0;exitDy=0;entryX=1;entryY=1;entryDx=0;entryDy=0;" edge="1" parent="1" source="FUQMEWrJkWzYZzMCfJSg-88" target="FUQMEWrJkWzYZzMCfJSg-92">
          <mxGeometry width="50" height="50" relative="1" as="geometry">
            <mxPoint x="350" y="260" as="sourcePoint" />
            <mxPoint x="400" y="210" as="targetPoint" />
          </mxGeometry>
        </mxCell>
        <mxCell id="FUQMEWrJkWzYZzMCfJSg-95" value="" style="endArrow=none;html=1;rounded=0;exitX=0;exitY=0;exitDx=0;exitDy=0;entryX=0;entryY=1;entryDx=0;entryDy=0;" edge="1" parent="1" source="FUQMEWrJkWzYZzMCfJSg-88" target="FUQMEWrJkWzYZzMCfJSg-92">
          <mxGeometry width="50" height="50" relative="1" as="geometry">
            <mxPoint x="352" y="340" as="sourcePoint" />
            <mxPoint x="403" y="340" as="targetPoint" />
          </mxGeometry>
        </mxCell>
        <mxCell id="FUQMEWrJkWzYZzMCfJSg-96" value="" style="rounded=0;whiteSpace=wrap;html=1;rotation=-90;fillColor=#e1d5e7;strokeColor=#9673a6;" vertex="1" parent="1">
          <mxGeometry x="383" y="296.08" width="75" height="10" as="geometry" />
        </mxCell>
        <mxCell id="FUQMEWrJkWzYZzMCfJSg-97" value="" style="rounded=0;whiteSpace=wrap;html=1;rotation=-90;fillColor=#dae8fc;strokeColor=#6c8ebf;" vertex="1" parent="1">
          <mxGeometry x="403.25" y="296.08" width="75" height="10" as="geometry" />
        </mxCell>
        <mxCell id="FUQMEWrJkWzYZzMCfJSg-98" value="" style="endArrow=classic;html=1;rounded=0;exitX=0.5;exitY=1;exitDx=0;exitDy=0;entryX=0.5;entryY=0;entryDx=0;entryDy=0;" edge="1" parent="1" source="FUQMEWrJkWzYZzMCfJSg-96" target="FUQMEWrJkWzYZzMCfJSg-97">
          <mxGeometry width="50" height="50" relative="1" as="geometry">
            <mxPoint x="543.25" y="319.83" as="sourcePoint" />
            <mxPoint x="593.25" y="269.83" as="targetPoint" />
          </mxGeometry>
        </mxCell>
        <mxCell id="FUQMEWrJkWzYZzMCfJSg-99" value="" style="endArrow=classic;html=1;rounded=0;exitX=0.5;exitY=1;exitDx=0;exitDy=0;entryX=0.5;entryY=0;entryDx=0;entryDy=0;" edge="1" parent="1" source="FUQMEWrJkWzYZzMCfJSg-97" target="FUQMEWrJkWzYZzMCfJSg-100">
          <mxGeometry width="50" height="50" relative="1" as="geometry">
            <mxPoint x="482.25" y="300.83" as="sourcePoint" />
            <mxPoint x="490.5" y="301.08" as="targetPoint" />
          </mxGeometry>
        </mxCell>
        <mxCell id="FUQMEWrJkWzYZzMCfJSg-100" value="" style="rounded=0;whiteSpace=wrap;html=1;rotation=-90;fillColor=#ffe6cc;strokeColor=#d79b00;" vertex="1" parent="1">
          <mxGeometry x="423.25" y="296.08" width="75" height="10" as="geometry" />
        </mxCell>
        <mxCell id="FUQMEWrJkWzYZzMCfJSg-101" value="" style="endArrow=classic;html=1;rounded=0;exitX=0.5;exitY=1;exitDx=0;exitDy=0;entryX=0.5;entryY=0;entryDx=0;entryDy=0;" edge="1" parent="1">
          <mxGeometry width="50" height="50" relative="1" as="geometry">
            <mxPoint x="403.25" y="300.96" as="sourcePoint" />
            <mxPoint x="415.25" y="300.96" as="targetPoint" />
          </mxGeometry>
        </mxCell>
        <mxCell id="FUQMEWrJkWzYZzMCfJSg-102" value="" style="endArrow=none;html=1;rounded=0;exitX=1;exitY=0;exitDx=0;exitDy=0;entryX=1;entryY=1;entryDx=0;entryDy=0;" edge="1" parent="1" source="FUQMEWrJkWzYZzMCfJSg-96" target="FUQMEWrJkWzYZzMCfJSg-100">
          <mxGeometry width="50" height="50" relative="1" as="geometry">
            <mxPoint x="413.25" y="259.83" as="sourcePoint" />
            <mxPoint x="463.25" y="209.83" as="targetPoint" />
          </mxGeometry>
        </mxCell>
        <mxCell id="FUQMEWrJkWzYZzMCfJSg-103" value="" style="endArrow=none;html=1;rounded=0;exitX=0;exitY=0;exitDx=0;exitDy=0;entryX=0;entryY=1;entryDx=0;entryDy=0;" edge="1" parent="1" source="FUQMEWrJkWzYZzMCfJSg-96" target="FUQMEWrJkWzYZzMCfJSg-100">
          <mxGeometry width="50" height="50" relative="1" as="geometry">
            <mxPoint x="415.25" y="339.83" as="sourcePoint" />
            <mxPoint x="466.25" y="339.83" as="targetPoint" />
          </mxGeometry>
        </mxCell>
        <mxCell id="FUQMEWrJkWzYZzMCfJSg-104" value="" style="endArrow=classic;html=1;rounded=0;exitX=0.5;exitY=1;exitDx=0;exitDy=0;entryX=0.5;entryY=0;entryDx=0;entryDy=0;" edge="1" parent="1">
          <mxGeometry width="50" height="50" relative="1" as="geometry">
            <mxPoint x="466.25" y="301.13" as="sourcePoint" />
            <mxPoint x="478.25" y="301.13" as="targetPoint" />
          </mxGeometry>
        </mxCell>
        <mxCell id="FUQMEWrJkWzYZzMCfJSg-105" value="conv2d" style="rounded=0;whiteSpace=wrap;html=1;rotation=-90;fillColor=#e1d5e7;strokeColor=#9673a6;" vertex="1" parent="1">
          <mxGeometry x="453" y="289.68" width="75" height="22.5" as="geometry" />
        </mxCell>
        <mxCell id="FUQMEWrJkWzYZzMCfJSg-107" value="" style="endArrow=classic;html=1;rounded=0;exitX=0.5;exitY=1;exitDx=0;exitDy=0;entryX=0.5;entryY=0;entryDx=0;entryDy=0;" edge="1" parent="1" source="FUQMEWrJkWzYZzMCfJSg-105" target="FUQMEWrJkWzYZzMCfJSg-126">
          <mxGeometry width="50" height="50" relative="1" as="geometry">
            <mxPoint x="603" y="319.68" as="sourcePoint" />
            <mxPoint x="524.57" y="300.92999999999995" as="targetPoint" />
          </mxGeometry>
        </mxCell>
        <mxCell id="FUQMEWrJkWzYZzMCfJSg-108" value="" style="endArrow=classic;html=1;rounded=0;exitX=0.5;exitY=1;exitDx=0;exitDy=0;entryX=0.5;entryY=0;entryDx=0;entryDy=0;" edge="1" parent="1">
          <mxGeometry width="50" height="50" relative="1" as="geometry">
            <mxPoint x="522.7500000000001" y="300.75999999999993" as="sourcePoint" />
            <mxPoint x="536.25" y="300.76" as="targetPoint" />
          </mxGeometry>
        </mxCell>
        <mxCell id="FUQMEWrJkWzYZzMCfJSg-109" value="UpSampling" style="rounded=0;whiteSpace=wrap;html=1;rotation=-90;fillColor=#fad7ac;strokeColor=#b46504;" vertex="1" parent="1">
          <mxGeometry x="510" y="289.51" width="75" height="22.5" as="geometry" />
        </mxCell>
        <mxCell id="FUQMEWrJkWzYZzMCfJSg-110" value="" style="rounded=0;whiteSpace=wrap;html=1;rotation=-90;fillColor=#e1d5e7;strokeColor=#9673a6;" vertex="1" parent="1">
          <mxGeometry x="538.75" y="295.93" width="75" height="10" as="geometry" />
        </mxCell>
        <mxCell id="FUQMEWrJkWzYZzMCfJSg-111" value="" style="rounded=0;whiteSpace=wrap;html=1;rotation=-90;fillColor=#dae8fc;strokeColor=#6c8ebf;" vertex="1" parent="1">
          <mxGeometry x="559" y="295.93" width="75" height="10" as="geometry" />
        </mxCell>
        <mxCell id="FUQMEWrJkWzYZzMCfJSg-112" value="" style="endArrow=classic;html=1;rounded=0;exitX=0.5;exitY=1;exitDx=0;exitDy=0;entryX=0.5;entryY=0;entryDx=0;entryDy=0;" edge="1" parent="1" source="FUQMEWrJkWzYZzMCfJSg-110" target="FUQMEWrJkWzYZzMCfJSg-111">
          <mxGeometry width="50" height="50" relative="1" as="geometry">
            <mxPoint x="699" y="319.68" as="sourcePoint" />
            <mxPoint x="749" y="269.68" as="targetPoint" />
          </mxGeometry>
        </mxCell>
        <mxCell id="FUQMEWrJkWzYZzMCfJSg-113" value="" style="endArrow=classic;html=1;rounded=0;exitX=0.5;exitY=1;exitDx=0;exitDy=0;entryX=0.5;entryY=0;entryDx=0;entryDy=0;" edge="1" parent="1" source="FUQMEWrJkWzYZzMCfJSg-111" target="FUQMEWrJkWzYZzMCfJSg-114">
          <mxGeometry width="50" height="50" relative="1" as="geometry">
            <mxPoint x="638" y="300.68" as="sourcePoint" />
            <mxPoint x="646.25" y="300.93" as="targetPoint" />
          </mxGeometry>
        </mxCell>
        <mxCell id="FUQMEWrJkWzYZzMCfJSg-114" value="" style="rounded=0;whiteSpace=wrap;html=1;rotation=-90;fillColor=#fad7ac;strokeColor=#b46504;" vertex="1" parent="1">
          <mxGeometry x="579" y="295.93" width="75" height="10" as="geometry" />
        </mxCell>
        <mxCell id="FUQMEWrJkWzYZzMCfJSg-115" value="" style="endArrow=classic;html=1;rounded=0;exitX=0.5;exitY=1;exitDx=0;exitDy=0;entryX=0.5;entryY=0;entryDx=0;entryDy=0;" edge="1" parent="1">
          <mxGeometry width="50" height="50" relative="1" as="geometry">
            <mxPoint x="559" y="300.81" as="sourcePoint" />
            <mxPoint x="571" y="300.81" as="targetPoint" />
          </mxGeometry>
        </mxCell>
        <mxCell id="FUQMEWrJkWzYZzMCfJSg-116" value="" style="endArrow=none;html=1;rounded=0;exitX=1;exitY=0;exitDx=0;exitDy=0;entryX=1;entryY=1;entryDx=0;entryDy=0;" edge="1" parent="1" source="FUQMEWrJkWzYZzMCfJSg-110" target="FUQMEWrJkWzYZzMCfJSg-114">
          <mxGeometry width="50" height="50" relative="1" as="geometry">
            <mxPoint x="569" y="259.68" as="sourcePoint" />
            <mxPoint x="619" y="209.68" as="targetPoint" />
          </mxGeometry>
        </mxCell>
        <mxCell id="FUQMEWrJkWzYZzMCfJSg-117" value="" style="endArrow=none;html=1;rounded=0;exitX=0;exitY=0;exitDx=0;exitDy=0;entryX=0;entryY=1;entryDx=0;entryDy=0;" edge="1" parent="1" source="FUQMEWrJkWzYZzMCfJSg-110" target="FUQMEWrJkWzYZzMCfJSg-114">
          <mxGeometry width="50" height="50" relative="1" as="geometry">
            <mxPoint x="571" y="339.68" as="sourcePoint" />
            <mxPoint x="622" y="339.68" as="targetPoint" />
          </mxGeometry>
        </mxCell>
        <mxCell id="FUQMEWrJkWzYZzMCfJSg-118" value="" style="rounded=0;whiteSpace=wrap;html=1;rotation=-90;fillColor=#e1d5e7;strokeColor=#9673a6;" vertex="1" parent="1">
          <mxGeometry x="602" y="295.76" width="75" height="10" as="geometry" />
        </mxCell>
        <mxCell id="FUQMEWrJkWzYZzMCfJSg-119" value="" style="rounded=0;whiteSpace=wrap;html=1;rotation=-90;fillColor=#dae8fc;strokeColor=#6c8ebf;" vertex="1" parent="1">
          <mxGeometry x="622.25" y="295.76" width="75" height="10" as="geometry" />
        </mxCell>
        <mxCell id="FUQMEWrJkWzYZzMCfJSg-120" value="" style="endArrow=classic;html=1;rounded=0;exitX=0.5;exitY=1;exitDx=0;exitDy=0;entryX=0.5;entryY=0;entryDx=0;entryDy=0;" edge="1" parent="1" source="FUQMEWrJkWzYZzMCfJSg-118" target="FUQMEWrJkWzYZzMCfJSg-119">
          <mxGeometry width="50" height="50" relative="1" as="geometry">
            <mxPoint x="762.25" y="319.51" as="sourcePoint" />
            <mxPoint x="812.25" y="269.51" as="targetPoint" />
          </mxGeometry>
        </mxCell>
        <mxCell id="FUQMEWrJkWzYZzMCfJSg-121" value="" style="endArrow=classic;html=1;rounded=0;exitX=0.5;exitY=1;exitDx=0;exitDy=0;entryX=0.5;entryY=0;entryDx=0;entryDy=0;" edge="1" parent="1" source="FUQMEWrJkWzYZzMCfJSg-119" target="FUQMEWrJkWzYZzMCfJSg-122">
          <mxGeometry width="50" height="50" relative="1" as="geometry">
            <mxPoint x="701.25" y="300.51" as="sourcePoint" />
            <mxPoint x="709.5" y="300.76" as="targetPoint" />
          </mxGeometry>
        </mxCell>
        <mxCell id="FUQMEWrJkWzYZzMCfJSg-122" value="" style="rounded=0;whiteSpace=wrap;html=1;rotation=-90;fillColor=#fad7ac;strokeColor=#b46504;" vertex="1" parent="1">
          <mxGeometry x="642.25" y="295.76" width="75" height="10" as="geometry" />
        </mxCell>
        <mxCell id="FUQMEWrJkWzYZzMCfJSg-123" value="" style="endArrow=classic;html=1;rounded=0;exitX=0.5;exitY=1;exitDx=0;exitDy=0;entryX=0.5;entryY=0;entryDx=0;entryDy=0;" edge="1" parent="1">
          <mxGeometry width="50" height="50" relative="1" as="geometry">
            <mxPoint x="622.25" y="300.64" as="sourcePoint" />
            <mxPoint x="634.25" y="300.64" as="targetPoint" />
          </mxGeometry>
        </mxCell>
        <mxCell id="FUQMEWrJkWzYZzMCfJSg-124" value="" style="endArrow=none;html=1;rounded=0;exitX=1;exitY=0;exitDx=0;exitDy=0;entryX=1;entryY=1;entryDx=0;entryDy=0;" edge="1" parent="1" source="FUQMEWrJkWzYZzMCfJSg-118" target="FUQMEWrJkWzYZzMCfJSg-122">
          <mxGeometry width="50" height="50" relative="1" as="geometry">
            <mxPoint x="632.25" y="259.51" as="sourcePoint" />
            <mxPoint x="682.25" y="209.51000000000002" as="targetPoint" />
          </mxGeometry>
        </mxCell>
        <mxCell id="FUQMEWrJkWzYZzMCfJSg-125" value="" style="endArrow=none;html=1;rounded=0;exitX=0;exitY=0;exitDx=0;exitDy=0;entryX=0;entryY=1;entryDx=0;entryDy=0;" edge="1" parent="1" source="FUQMEWrJkWzYZzMCfJSg-118" target="FUQMEWrJkWzYZzMCfJSg-122">
          <mxGeometry width="50" height="50" relative="1" as="geometry">
            <mxPoint x="634.25" y="339.51" as="sourcePoint" />
            <mxPoint x="685.25" y="339.51" as="targetPoint" />
          </mxGeometry>
        </mxCell>
        <mxCell id="FUQMEWrJkWzYZzMCfJSg-126" value="" style="rounded=0;whiteSpace=wrap;html=1;rotation=-90;fillColor=#dae8fc;strokeColor=#6c8ebf;" vertex="1" parent="1">
          <mxGeometry x="480.25" y="295.76" width="75" height="10" as="geometry" />
        </mxCell>
        <mxCell id="FUQMEWrJkWzYZzMCfJSg-129" value="" style="endArrow=classic;html=1;rounded=0;exitX=0.5;exitY=1;exitDx=0;exitDy=0;" edge="1" parent="1" source="FUQMEWrJkWzYZzMCfJSg-122">
          <mxGeometry width="50" height="50" relative="1" as="geometry">
            <mxPoint x="700" y="310" as="sourcePoint" />
            <mxPoint x="700" y="301" as="targetPoint" />
          </mxGeometry>
        </mxCell>
        <mxCell id="FUQMEWrJkWzYZzMCfJSg-130" value="Upscaling" style="rounded=0;whiteSpace=wrap;html=1;rotation=-90;fillColor=#fad9d5;strokeColor=#ae4132;" vertex="1" parent="1">
          <mxGeometry x="673.04" y="289.9" width="76.5" height="22.07" as="geometry" />
        </mxCell>
        <mxCell id="FUQMEWrJkWzYZzMCfJSg-132" value="conv2d" style="rounded=0;whiteSpace=wrap;html=1;rotation=-90;fillColor=#e1d5e7;strokeColor=#9673a6;" vertex="1" parent="1">
          <mxGeometry x="710" y="290" width="75" height="22.5" as="geometry" />
        </mxCell>
        <mxCell id="FUQMEWrJkWzYZzMCfJSg-133" value="" style="shape=curlyBracket;whiteSpace=wrap;html=1;rounded=1;labelPosition=left;verticalLabelPosition=middle;align=right;verticalAlign=middle;rotation=90;size=0.5;" vertex="1" parent="1">
          <mxGeometry x="346" y="144" width="20" height="220" as="geometry" />
        </mxCell>
        <mxCell id="FUQMEWrJkWzYZzMCfJSg-134" value="Upsampling" style="text;html=1;align=center;verticalAlign=middle;resizable=0;points=[];autosize=1;strokeColor=none;fillColor=none;" vertex="1" parent="1">
          <mxGeometry x="311" y="220" width="90" height="30" as="geometry" />
        </mxCell>
        <mxCell id="FUQMEWrJkWzYZzMCfJSg-135" value="" style="shape=curlyBracket;whiteSpace=wrap;html=1;rounded=1;labelPosition=left;verticalLabelPosition=middle;align=right;verticalAlign=middle;rotation=90;size=0.5;" vertex="1" parent="1">
          <mxGeometry x="572" y="150.5" width="20" height="205" as="geometry" />
        </mxCell>
        <mxCell id="FUQMEWrJkWzYZzMCfJSg-136" value="Downsampling" style="text;html=1;align=center;verticalAlign=middle;resizable=0;points=[];autosize=1;strokeColor=none;fillColor=none;" vertex="1" parent="1">
          <mxGeometry x="532" y="220" width="100" height="30" as="geometry" />
        </mxCell>
        <mxCell id="FUQMEWrJkWzYZzMCfJSg-137" value="" style="endArrow=classic;html=1;rounded=0;exitX=0.5;exitY=1;exitDx=0;exitDy=0;entryX=0.5;entryY=0;entryDx=0;entryDy=0;" edge="1" parent="1" source="FUQMEWrJkWzYZzMCfJSg-130" target="FUQMEWrJkWzYZzMCfJSg-132">
          <mxGeometry width="50" height="50" relative="1" as="geometry">
            <mxPoint x="780" y="300" as="sourcePoint" />
            <mxPoint x="830" y="250" as="targetPoint" />
          </mxGeometry>
        </mxCell>
        <mxCell id="FUQMEWrJkWzYZzMCfJSg-140" value="Upscaling" style="text;html=1;align=center;verticalAlign=middle;resizable=0;points=[];autosize=1;strokeColor=none;fillColor=none;" vertex="1" parent="1">
          <mxGeometry x="545" y="355.5" width="80" height="30" as="geometry" />
        </mxCell>
        <mxCell id="FUQMEWrJkWzYZzMCfJSg-147" value="x2" style="text;html=1;align=center;verticalAlign=middle;resizable=0;points=[];autosize=1;strokeColor=none;fillColor=none;" vertex="1" parent="1">
          <mxGeometry x="490" y="440" width="40" height="30" as="geometry" />
        </mxCell>
        <mxCell id="FUQMEWrJkWzYZzMCfJSg-148" value="x1" style="text;html=1;align=center;verticalAlign=middle;resizable=0;points=[];autosize=1;strokeColor=none;fillColor=none;" vertex="1" parent="1">
          <mxGeometry x="487.5" y="385.5" width="40" height="30" as="geometry" />
        </mxCell>
        <mxCell id="FUQMEWrJkWzYZzMCfJSg-149" value="" style="endArrow=classic;html=1;rounded=0;" edge="1" parent="1">
          <mxGeometry width="50" height="50" relative="1" as="geometry">
            <mxPoint x="530" y="400" as="sourcePoint" />
            <mxPoint x="640" y="400" as="targetPoint" />
          </mxGeometry>
        </mxCell>
        <mxCell id="FUQMEWrJkWzYZzMCfJSg-150" value="" style="endArrow=classic;html=1;rounded=0;exitX=0.5;exitY=1;exitDx=0;exitDy=0;entryX=0.5;entryY=0;entryDx=0;entryDy=0;" edge="1" parent="1">
          <mxGeometry width="50" height="50" relative="1" as="geometry">
            <mxPoint x="593.25" y="456.35" as="sourcePoint" />
            <mxPoint x="605.25" y="456.35" as="targetPoint" />
          </mxGeometry>
        </mxCell>
        <mxCell id="FUQMEWrJkWzYZzMCfJSg-157" value="x4" style="text;html=1;align=center;verticalAlign=middle;resizable=0;points=[];autosize=1;strokeColor=none;fillColor=none;" vertex="1" parent="1">
          <mxGeometry x="613.75" y="440.62" width="40" height="30" as="geometry" />
        </mxCell>
        <mxCell id="FUQMEWrJkWzYZzMCfJSg-165" value="" style="rounded=0;whiteSpace=wrap;html=1;rotation=-90;fillColor=#e1d5e7;strokeColor=#9673a6;" vertex="1" parent="1">
          <mxGeometry x="510" y="449.88" width="75" height="10" as="geometry" />
        </mxCell>
        <mxCell id="FUQMEWrJkWzYZzMCfJSg-166" value="" style="rounded=0;whiteSpace=wrap;html=1;rotation=-90;fillColor=#dae8fc;strokeColor=#6c8ebf;" vertex="1" parent="1">
          <mxGeometry x="530.25" y="449.88" width="75" height="10" as="geometry" />
        </mxCell>
        <mxCell id="FUQMEWrJkWzYZzMCfJSg-167" value="" style="endArrow=classic;html=1;rounded=0;exitX=0.5;exitY=1;exitDx=0;exitDy=0;entryX=0.5;entryY=0;entryDx=0;entryDy=0;" edge="1" parent="1">
          <mxGeometry width="50" height="50" relative="1" as="geometry">
            <mxPoint x="552.5" y="455.88" as="sourcePoint" />
            <mxPoint x="562.75" y="455.88" as="targetPoint" />
          </mxGeometry>
        </mxCell>
        <mxCell id="FUQMEWrJkWzYZzMCfJSg-168" value="" style="endArrow=classic;html=1;rounded=0;exitX=0.5;exitY=1;exitDx=0;exitDy=0;entryX=0.5;entryY=0;entryDx=0;entryDy=0;" edge="1" parent="1">
          <mxGeometry width="50" height="50" relative="1" as="geometry">
            <mxPoint x="572.75" y="455.88" as="sourcePoint" />
            <mxPoint x="582.75" y="455.88" as="targetPoint" />
          </mxGeometry>
        </mxCell>
        <mxCell id="FUQMEWrJkWzYZzMCfJSg-169" value="" style="rounded=0;whiteSpace=wrap;html=1;rotation=-90;fillColor=#fad7ac;strokeColor=#b46504;" vertex="1" parent="1">
          <mxGeometry x="550.25" y="449.88" width="75" height="10" as="geometry" />
        </mxCell>
        <mxCell id="FUQMEWrJkWzYZzMCfJSg-170" value="" style="endArrow=none;html=1;rounded=0;exitX=1;exitY=0;exitDx=0;exitDy=0;entryX=1;entryY=1;entryDx=0;entryDy=0;" edge="1" parent="1" source="FUQMEWrJkWzYZzMCfJSg-165" target="FUQMEWrJkWzYZzMCfJSg-169">
          <mxGeometry width="50" height="50" relative="1" as="geometry">
            <mxPoint x="540.25" y="413.63" as="sourcePoint" />
            <mxPoint x="590.25" y="363.63" as="targetPoint" />
          </mxGeometry>
        </mxCell>
        <mxCell id="FUQMEWrJkWzYZzMCfJSg-171" value="" style="endArrow=none;html=1;rounded=0;exitX=0;exitY=0;exitDx=0;exitDy=0;entryX=0;entryY=1;entryDx=0;entryDy=0;" edge="1" parent="1" source="FUQMEWrJkWzYZzMCfJSg-165" target="FUQMEWrJkWzYZzMCfJSg-169">
          <mxGeometry width="50" height="50" relative="1" as="geometry">
            <mxPoint x="542.25" y="493.63" as="sourcePoint" />
            <mxPoint x="593.25" y="493.63" as="targetPoint" />
          </mxGeometry>
        </mxCell>
        <mxCell id="FUQMEWrJkWzYZzMCfJSg-174" value="" style="endArrow=classic;html=1;rounded=0;exitX=0.5;exitY=1;exitDx=0;exitDy=0;entryX=0.5;entryY=0;entryDx=0;entryDy=0;" edge="1" parent="1">
          <mxGeometry width="50" height="50" relative="1" as="geometry">
            <mxPoint x="530.25" y="455.88" as="sourcePoint" />
            <mxPoint x="542.25" y="455.88" as="targetPoint" />
          </mxGeometry>
        </mxCell>
        <mxCell id="FUQMEWrJkWzYZzMCfJSg-175" value="" style="endArrow=classic;html=1;rounded=0;exitX=0.5;exitY=1;exitDx=0;exitDy=0;entryX=0.5;entryY=0;entryDx=0;entryDy=0;" edge="1" parent="1">
          <mxGeometry width="50" height="50" relative="1" as="geometry">
            <mxPoint x="717" y="455.97" as="sourcePoint" />
            <mxPoint x="729" y="455.97" as="targetPoint" />
          </mxGeometry>
        </mxCell>
        <mxCell id="FUQMEWrJkWzYZzMCfJSg-176" value="" style="rounded=0;whiteSpace=wrap;html=1;rotation=-90;fillColor=#e1d5e7;strokeColor=#9673a6;" vertex="1" parent="1">
          <mxGeometry x="633.75" y="450.5" width="75" height="10" as="geometry" />
        </mxCell>
        <mxCell id="FUQMEWrJkWzYZzMCfJSg-177" value="" style="rounded=0;whiteSpace=wrap;html=1;rotation=-90;fillColor=#dae8fc;strokeColor=#6c8ebf;" vertex="1" parent="1">
          <mxGeometry x="654" y="450.5" width="75" height="10" as="geometry" />
        </mxCell>
        <mxCell id="FUQMEWrJkWzYZzMCfJSg-178" value="" style="endArrow=classic;html=1;rounded=0;exitX=0.5;exitY=1;exitDx=0;exitDy=0;entryX=0.5;entryY=0;entryDx=0;entryDy=0;" edge="1" parent="1" source="FUQMEWrJkWzYZzMCfJSg-176" target="FUQMEWrJkWzYZzMCfJSg-177">
          <mxGeometry width="50" height="50" relative="1" as="geometry">
            <mxPoint x="794" y="474.25" as="sourcePoint" />
            <mxPoint x="844" y="424.25" as="targetPoint" />
          </mxGeometry>
        </mxCell>
        <mxCell id="FUQMEWrJkWzYZzMCfJSg-179" value="" style="endArrow=classic;html=1;rounded=0;exitX=0.5;exitY=1;exitDx=0;exitDy=0;entryX=0.5;entryY=0;entryDx=0;entryDy=0;" edge="1" parent="1">
          <mxGeometry width="50" height="50" relative="1" as="geometry">
            <mxPoint x="696.5" y="455.5" as="sourcePoint" />
            <mxPoint x="706.5" y="455.5" as="targetPoint" />
          </mxGeometry>
        </mxCell>
        <mxCell id="FUQMEWrJkWzYZzMCfJSg-180" value="" style="rounded=0;whiteSpace=wrap;html=1;rotation=-90;fillColor=#fad7ac;strokeColor=#b46504;" vertex="1" parent="1">
          <mxGeometry x="674" y="450.5" width="75" height="10" as="geometry" />
        </mxCell>
        <mxCell id="FUQMEWrJkWzYZzMCfJSg-181" value="" style="endArrow=none;html=1;rounded=0;exitX=1;exitY=0;exitDx=0;exitDy=0;entryX=1;entryY=1;entryDx=0;entryDy=0;" edge="1" parent="1" source="FUQMEWrJkWzYZzMCfJSg-176" target="FUQMEWrJkWzYZzMCfJSg-180">
          <mxGeometry width="50" height="50" relative="1" as="geometry">
            <mxPoint x="664" y="414.25" as="sourcePoint" />
            <mxPoint x="714" y="364.25" as="targetPoint" />
          </mxGeometry>
        </mxCell>
        <mxCell id="FUQMEWrJkWzYZzMCfJSg-182" value="" style="endArrow=none;html=1;rounded=0;exitX=0;exitY=0;exitDx=0;exitDy=0;entryX=0;entryY=1;entryDx=0;entryDy=0;" edge="1" parent="1" source="FUQMEWrJkWzYZzMCfJSg-176" target="FUQMEWrJkWzYZzMCfJSg-180">
          <mxGeometry width="50" height="50" relative="1" as="geometry">
            <mxPoint x="666" y="494.25" as="sourcePoint" />
            <mxPoint x="717" y="494.25" as="targetPoint" />
          </mxGeometry>
        </mxCell>
        <mxCell id="FUQMEWrJkWzYZzMCfJSg-183" value="" style="endArrow=classic;html=1;rounded=0;exitX=0.5;exitY=1;exitDx=0;exitDy=0;entryX=0.5;entryY=0;entryDx=0;entryDy=0;" edge="1" parent="1">
          <mxGeometry width="50" height="50" relative="1" as="geometry">
            <mxPoint x="654" y="455.5" as="sourcePoint" />
            <mxPoint x="666" y="455.5" as="targetPoint" />
          </mxGeometry>
        </mxCell>
        <mxCell id="FUQMEWrJkWzYZzMCfJSg-184" value="" style="endArrow=classic;html=1;rounded=0;exitX=0.5;exitY=1;exitDx=0;exitDy=0;entryX=0.5;entryY=0;entryDx=0;entryDy=0;" edge="1" parent="1">
          <mxGeometry width="50" height="50" relative="1" as="geometry">
            <mxPoint x="780" y="457.97" as="sourcePoint" />
            <mxPoint x="792" y="457.97" as="targetPoint" />
          </mxGeometry>
        </mxCell>
        <mxCell id="FUQMEWrJkWzYZzMCfJSg-185" value="" style="rounded=0;whiteSpace=wrap;html=1;rotation=-90;fillColor=#e1d5e7;strokeColor=#9673a6;" vertex="1" parent="1">
          <mxGeometry x="696.75" y="450.5" width="75" height="10" as="geometry" />
        </mxCell>
        <mxCell id="FUQMEWrJkWzYZzMCfJSg-186" value="" style="rounded=0;whiteSpace=wrap;html=1;rotation=-90;fillColor=#dae8fc;strokeColor=#6c8ebf;" vertex="1" parent="1">
          <mxGeometry x="717" y="450.5" width="75" height="10" as="geometry" />
        </mxCell>
        <mxCell id="FUQMEWrJkWzYZzMCfJSg-187" value="" style="endArrow=classic;html=1;rounded=0;exitX=0.5;exitY=1;exitDx=0;exitDy=0;entryX=0.5;entryY=0;entryDx=0;entryDy=0;" edge="1" parent="1" source="FUQMEWrJkWzYZzMCfJSg-185" target="FUQMEWrJkWzYZzMCfJSg-186">
          <mxGeometry width="50" height="50" relative="1" as="geometry">
            <mxPoint x="857" y="474.25" as="sourcePoint" />
            <mxPoint x="907" y="424.25" as="targetPoint" />
          </mxGeometry>
        </mxCell>
        <mxCell id="FUQMEWrJkWzYZzMCfJSg-188" value="" style="endArrow=classic;html=1;rounded=0;exitX=0.5;exitY=1;exitDx=0;exitDy=0;entryX=0.5;entryY=0;entryDx=0;entryDy=0;" edge="1" parent="1" source="FUQMEWrJkWzYZzMCfJSg-186" target="FUQMEWrJkWzYZzMCfJSg-189">
          <mxGeometry width="50" height="50" relative="1" as="geometry">
            <mxPoint x="796" y="455.25" as="sourcePoint" />
            <mxPoint x="804.25" y="455.5" as="targetPoint" />
          </mxGeometry>
        </mxCell>
        <mxCell id="FUQMEWrJkWzYZzMCfJSg-189" value="" style="rounded=0;whiteSpace=wrap;html=1;rotation=-90;fillColor=#fad7ac;strokeColor=#b46504;" vertex="1" parent="1">
          <mxGeometry x="737" y="450.5" width="75" height="10" as="geometry" />
        </mxCell>
        <mxCell id="FUQMEWrJkWzYZzMCfJSg-190" value="" style="endArrow=none;html=1;rounded=0;exitX=1;exitY=0;exitDx=0;exitDy=0;entryX=1;entryY=1;entryDx=0;entryDy=0;" edge="1" parent="1" source="FUQMEWrJkWzYZzMCfJSg-185" target="FUQMEWrJkWzYZzMCfJSg-189">
          <mxGeometry width="50" height="50" relative="1" as="geometry">
            <mxPoint x="727" y="414.25" as="sourcePoint" />
            <mxPoint x="777" y="364.25" as="targetPoint" />
          </mxGeometry>
        </mxCell>
        <mxCell id="FUQMEWrJkWzYZzMCfJSg-191" value="" style="endArrow=none;html=1;rounded=0;exitX=0;exitY=0;exitDx=0;exitDy=0;entryX=0;entryY=1;entryDx=0;entryDy=0;" edge="1" parent="1" source="FUQMEWrJkWzYZzMCfJSg-185" target="FUQMEWrJkWzYZzMCfJSg-189">
          <mxGeometry width="50" height="50" relative="1" as="geometry">
            <mxPoint x="729" y="494.25" as="sourcePoint" />
            <mxPoint x="780" y="494.25" as="targetPoint" />
          </mxGeometry>
        </mxCell>
        <mxCell id="FUQMEWrJkWzYZzMCfJSg-195" value="c128k3" style="text;html=1;align=center;verticalAlign=middle;resizable=0;points=[];autosize=1;strokeColor=none;fillColor=none;" vertex="1" parent="1">
          <mxGeometry x="227.5" y="340" width="60" height="30" as="geometry" />
        </mxCell>
        <mxCell id="FUQMEWrJkWzYZzMCfJSg-196" value="c256k3" style="text;html=1;align=center;verticalAlign=middle;resizable=0;points=[];autosize=1;strokeColor=none;fillColor=none;" vertex="1" parent="1">
          <mxGeometry x="347.5" y="340" width="60" height="30" as="geometry" />
        </mxCell>
        <mxCell id="FUQMEWrJkWzYZzMCfJSg-197" value="c512k3" style="text;html=1;align=center;verticalAlign=middle;resizable=0;points=[];autosize=1;strokeColor=none;fillColor=none;" vertex="1" parent="1">
          <mxGeometry x="410.75" y="340" width="60" height="30" as="geometry" />
        </mxCell>
        <mxCell id="FUQMEWrJkWzYZzMCfJSg-198" value="c512k3" style="text;html=1;align=center;verticalAlign=middle;resizable=0;points=[];autosize=1;strokeColor=none;fillColor=none;" vertex="1" parent="1">
          <mxGeometry x="460.5" y="340" width="60" height="30" as="geometry" />
        </mxCell>
        <mxCell id="FUQMEWrJkWzYZzMCfJSg-199" value="c256k3" style="text;html=1;align=center;verticalAlign=middle;resizable=0;points=[];autosize=1;strokeColor=none;fillColor=none;" vertex="1" parent="1">
          <mxGeometry x="566.5" y="340" width="60" height="30" as="geometry" />
        </mxCell>
        <mxCell id="FUQMEWrJkWzYZzMCfJSg-200" value="c128k3" style="text;html=1;align=center;verticalAlign=middle;resizable=0;points=[];autosize=1;strokeColor=none;fillColor=none;" vertex="1" parent="1">
          <mxGeometry x="629.75" y="340" width="60" height="30" as="geometry" />
        </mxCell>
        <mxCell id="FUQMEWrJkWzYZzMCfJSg-201" value="c3k3" style="text;html=1;align=center;verticalAlign=middle;resizable=0;points=[];autosize=1;strokeColor=none;fillColor=none;" vertex="1" parent="1">
          <mxGeometry x="722.5" y="340" width="50" height="30" as="geometry" />
        </mxCell>
        <mxCell id="FUQMEWrJkWzYZzMCfJSg-202" value="c64k3" style="text;html=1;align=center;verticalAlign=middle;resizable=0;points=[];autosize=1;strokeColor=none;fillColor=none;" vertex="1" parent="1">
          <mxGeometry x="537.75" y="490" width="60" height="30" as="geometry" />
        </mxCell>
        <mxCell id="FUQMEWrJkWzYZzMCfJSg-203" value="c64k3" style="text;html=1;align=center;verticalAlign=middle;resizable=0;points=[];autosize=1;strokeColor=none;fillColor=none;" vertex="1" parent="1">
          <mxGeometry x="661.5" y="490" width="60" height="30" as="geometry" />
        </mxCell>
        <mxCell id="FUQMEWrJkWzYZzMCfJSg-204" value="c32k3" style="text;html=1;align=center;verticalAlign=middle;resizable=0;points=[];autosize=1;strokeColor=none;fillColor=none;" vertex="1" parent="1">
          <mxGeometry x="724.5" y="490" width="60" height="30" as="geometry" />
        </mxCell>
        <mxCell id="FUQMEWrJkWzYZzMCfJSg-205" value="" style="endArrow=classic;html=1;rounded=0;exitX=0.5;exitY=1;exitDx=0;exitDy=0;entryX=0.5;entryY=0;entryDx=0;entryDy=0;" edge="1" parent="1">
          <mxGeometry width="50" height="50" relative="1" as="geometry">
            <mxPoint x="759.5" y="301.52000000000004" as="sourcePoint" />
            <mxPoint x="771.5" y="301.52000000000004" as="targetPoint" />
          </mxGeometry>
        </mxCell>
      </root>
    </mxGraphModel>
  </diagram>
</mxfile>
